# AST/ASF file generated using VICON BodyLanguage
# -----------------------------------------------
:version 1.10
:name VICON
:units
  mass 1.0
  length 0.45
  angle deg
:documentation
   .ast/.asf automatically generated from VICON data using
   VICON BodyBuilder and BodyLanguage model FoxedUp or BRILLIANT.MOD
:root
   order TX TY TZ RX RY RZ
   axis XYZ
   position 0 0 0  
   orientation 0 0 0 
:bonedata
  begin
     id 1 
     name lhipjoint
     direction 0.603808 -0.713975 0.35448 
     length 2.2025 
     axis 0 0 0  XYZ
  end
  begin
     id 2 
     name lfemur
     direction 0.34202 -0.939693 0  
     length 6.55877  
     axis 0 0 20  XYZ
    dof rx ry rz
    limits (-160.0 20.0)
           (-70.0 70.0)
           (-60.0 70.0)
  end
  begin
     id 3 
     name ltibia
     direction 0.34202 -0.939693 0   
     length 6.80302   
     axis 0 0 20   XYZ
    dof rx
    limits (-10.0 170.0)
  end
  begin
     id 4 
     name lfoot
     direction 0.091848 -0.25235 0.963267   
     length 2.03446   
     axis -90 7.62852e-016 20   XYZ
    dof rx rz
    limits (-45.0 90.0)
           (-70.0 20.0)
  end
  begin
     id 5 
     name ltoes
     direction 1.53608e-011 -4.21925e-011 1   
     length 1.02033   
     axis -90 7.62852e-016 20   XYZ
    dof rx
    limits (-90.0 20.0)
  end
  begin
     id 6 
     name rhipjoint
     direction -0.587285 -0.724947 0.359928   
     length 2.16916  
     axis 0 0 0  XYZ 
  end
  begin
     id 7 
     name rfemur
     direction -0.34202 -0.939693 0   
     length 6.43173   
     axis 0 0 -20   XYZ
    dof rx ry rz
    limits (-160.0 20.0)
           (-70.0 70.0)
           (-70.0 60.0)
  end
  begin
     id 8 
     name rtibia
     direction -0.34202 -0.939693 0   
     length 6.70662   
     axis 0 0 -20   XYZ
    dof rx
    limits (-10.0 170.0)
 end
 begin
     id 9 
     name rfoot
     direction -0.11854 -0.325686 0.938018   
     length 2.0773  
     axis -90 -7.62852e-016 -20   XYZ
    dof rx rz
    limits (-45.0 90.0)
           (-20.0 70.0)
  end
  begin
     id 10 
     name rtoes
     direction -1.53547e-011 -4.21838e-011 1   
     length 1.03267   
     axis -90 -7.62852e-016 -20   XYZ
    dof rx
    limits (-90.0 20.0)
  end
  begin
     id 11 
     name lowerback
     direction -0.0286554 0.999539 0.0100613   
     length 2.08751   
     axis 0 0 0   XYZ
    dof rx ry rz
    limits (-20.0 45.0)
           (-30.0 30.0)
           (-30.0 30.0)
  end
  begin
     id 12 
     name upperback
     direction 0.0227093 0.999705 -0.00860929   
     length 2.08517   
     axis 0 0 0   XYZ
    dof rx ry rz
    limits (-20.0 45.0)
           (-30.0 30.0)
           (-30.0 30.0)
  end
  begin
     id 13 
     name thorax
     direction 0.0351627 0.999285 -0.013892   
     length 2.08412   
     axis 0 0 0   XYZ
    dof rx ry rz
    limits (-20.0 45.0)
           (-30.0 30.0)
           (-30.0 30.0)
  end
  begin
     id 14 
     name lowerneck
     direction -0.0696283 0.997344 0.0213922   
     length 1.44164   
     axis 0 0 0   XYZ
    dof rx ry rz
    limits (-20.0 45.0)
           (-30.0 30.0)
           (-30.0 30.0)
  end
  begin
     id 15 
     name upperneck
     direction 0.0531 0.990412 -0.127531   
     length 1.45022   
     axis 0 0 0   XYZ
    dof rx ry rz
    limits (-20.0 45.0)
           (-30.0 30.0)
           (-30.0 30.0)
  end
  begin
     id 16
     name head
     direction 0.0188154 0.998548 -0.0504727  
     length 1.45845  
     axis 0 0 0   XYZ
    dof rx ry rz
    limits (-20.0 45.0)
           (-30.0 30.0)
           (-30.0 30.0)
  end
  begin
     id 17 
     name lclavicle
     direction 0.961559 0.260051 0.088188  
     length 2.86057  
     axis 0 0 0   XYZ
    dof ry rz
    limits (-20.0 10.0)
           (0.0 20.0)
  end
  begin
     id 18 
     name lhumerus
     direction 1 -4.48959e-011 2.88185e-027   
     length 4.36901   
     axis 180 -30 -90   XYZ
    dof rx ry rz
    limits (-60.0 90.0)
           (-90.0 90.0)
           (-90.0 90.0)
  end
  begin
     id 19
     name lradius
     direction 1 -4.48965e-011 -3.92618e-028   
     length 3.21737   
     axis 180 -30 -90   XYZ
    dof rx
    limits (-10.0 170.0)
  end
  begin
     id 20
     name lwrist
     direction 1 -4.49037e-011 2.57246e-027   
     length 1.60869   
     axis -1.61769e-015 90 90   XYZ
    dof ry
    limits (-180.0 0.0)
 end
  begin
     id 21 
     name lhand
     direction 1 -4.48807e-011 5.12958e-027   
     length 0.564313   
     axis -3.27988e-015 90 90   XYZ
    dof rx rz
    limits (-90.0 90.0)
           (-45.0 45.0)
  end
  begin
     id 22 
     name lfingers
     direction 1 -4.48879e-011 1.02687e-026   
     length 0.454963   
     axis -6.5598e-015 90 90   XYZ
    dof rx
    limits (0.0 90.0)
  end
  begin
     id 23
     name lthumb
     direction 0.707107 -6.3475e-011 0.707107   
     length 0.653239   
     axis -90 45 2.19363e-014   XYZ
    dof rx rz
    limits (-45.0 45.0)
           (-45.0 45.0)
  end
  begin
     id 24 
     name rclavicle
     direction -0.954677 0.253915 0.155304   
     length 3.11497  
     axis 0 0 0   XYZ 
    dof ry rz
    limits (-10.0 20.0)
           (-20.0 0.0)
  end
  begin
     id 25 
     name rhumerus
     direction -1 -4.48958e-011 -8.20169e-028  
     length 4.34118   
     axis 180 30 90   XYZ
    dof rx ry rz
    limits (-90.0 60.0)
           (-90.0 90.0)
           (-90.0 90.0)
  end
  begin
     id 26 
     name rradius
     direction -1 -4.48978e-011 1.5676e-027   
     length 3.09531   
     axis 180 30 90   XYZ
    dof rx
    limits (-10.0 170.0)
  end
  begin
     id 27 
     name rwrist
     direction -1 -4.49001e-011 2.57123e-027   
     length 1.54765   
     axis -1.61769e-015 -90 -90   XYZ
    dof ry
    limits (-180.0 0.0)
  end
  begin
     id 28
     name rhand
     direction -1 -4.48847e-011 5.13225e-027   
     length 0.597446   
     axis -3.27988e-015 -90 -90   XYZ
    dof rx rz
    limits (-90.0 90.0)
           (-45.0 45.0)
  end
  begin
     id 29
     name rfingers
     direction -1 -4.49094e-011 1.02974e-026   
     length 0.481677   
     axis -6.5598e-015 -90 -90   XYZ
    dof rx
    limits (0.0 90.0)
  end
  begin
     id 30
     name rthumb
     direction -0.707107 -6.34859e-011 0.707107   
     length 0.691594   
     axis -90 -45 -2.19363e-014   XYZ
    dof rx rz
    limits (-45.0 45.0)
           (-45.0 45.0)
  end
:hierarchy
  begin
    root lhipjoint rhipjoint lowerback
    lhipjoint lfemur
    lfemur ltibia
    ltibia lfoot
    lfoot ltoes
    rhipjoint rfemur
    rfemur rtibia
    rtibia rfoot
    rfoot rtoes
    lowerback upperback
    upperback thorax
    thorax lowerneck lclavicle rclavicle
    lowerneck upperneck
    upperneck head
    lclavicle lhumerus
    lhumerus lradius
    lradius lwrist
    lwrist lhand lthumb
    lhand lfingers
    rclavicle rhumerus
    rhumerus rradius
    rradius rwrist
    rwrist rhand rthumb
    rhand rfingers
  end

#!OML:ASF I:\Acrobat_Osman\acrobat\cartwheel_test 2\Patient 1\Session 1\acrobat.ASF
:FULLY-SPECIFIED
:DEGREES
1711
root 4.42764 15.5085 -9.64014 5.17351 -10.9719 0.958624
lowerback -0.622705 -2.65621 -1.47831
upperback 1.12238 -3.60017 4.3804
thorax 1.88031 -1.86201 5.26582
lowerneck -2.31 -13.8055 -12.5743
upperneck -1.72934 -18.2135 11.3816
head 2.03449 -9.01531 4.56873
rclavicle 1.59028e-015 9.54166e-015
rhumerus -36.156 7.94159 -74.3645
rradius 44.264
rwrist -1.61857
rhand -12.6082 19.2442
rfingers 7.12502
rthumb 13.4709 -10.3001
lclavicle 1.59028e-015 9.54166e-015
lhumerus -51.2982 -12.465 91.8567
lradius 90.6609
lwrist 9.50231
lhand -15.0891 49.8999
lfingers 7.12502
lthumb 11.0788 799.588
rfemur -8.57095 9.34187 19.7166
rtibia 28.1005
rfoot -29.1829 -24.8199
rtoes -7.39699
lfemur -206.131 179.531 -187.248
ltibia 25.8425
lfoot -12.5443 29.2001
ltoes -35.8458
1712
root 4.49105 15.4952 -9.54621 5.27075 -10.9051 0.889377
lowerback -0.45653 -2.69755 -1.98589
upperback 1.10255 -3.64606 4.27834
thorax 1.79698 -1.88946 5.45418
lowerneck -2.10264 -13.8818 -12.5405
upperneck -1.94234 -18.3338 11.6074
head 1.97246 -9.08182 4.64032
rclavicle -3.75703e-014 -2.38542e-014
rhumerus -36.9251 7.48207 -74.9921
rradius 42.5073
rwrist -0.151506
rhand -12.454 19.4935
rfingers 7.12502
rthumb 13.6195 -10.041
lclavicle -3.75703e-014 -2.38542e-014
lhumerus -51.5196 -12.5821 91.6458
lradius 90.3334
lwrist 9.4634
lhand -14.6657 50.4102
lfingers 7.12502
lthumb 11.4871 800.075
rfemur -8.24575 8.68754 19.4228
rtibia 27.7831
rfoot -28.6856 -24.4418
rtoes -7.90422
lfemur -205.409 180.362 -187.961
ltibia 26.0124
lfoot -13.6086 28.0578
ltoes -34.381
1713
root 4.56068 15.488 -9.45466 5.33321 -10.9004 0.727846
lowerback -0.193837 -2.68198 -2.39076
upperback 1.11719 -3.62023 4.18049
thorax 1.681 -1.87916 5.59516
lowerneck -1.75348 -13.9223 -12.7282
upperneck -2.26546 -18.4117 11.924
head 1.87982 -9.13112 4.78507
rclavicle 7.65321e-014 1.59028e-015
rhumerus -37.6869 6.81878 -75.5821
rradius 41.0091
rwrist 1.2682
rhand -12.2826 19.4964
rfingers 7.12502
rthumb 13.7846 -10.0269
lclavicle 7.65321e-014 1.59028e-015
lhumerus -51.5086 -12.9214 91.4471
lradius 89.8644
lwrist 9.19285
lhand -14.4586 50.6632
lfingers 7.12502
lthumb 11.6868 800.317
rfemur -7.86229 8.13201 19.2136
rtibia 27.4544
rfoot -28.2871 -24.0468
rtoes -8.13787
lfemur -204.894 181.409 -188.448
ltibia 26.4165
lfoot -13.6958 25.986
ltoes -33.4888
1714
root 4.63075 15.5113 -9.36166 5.38282 -10.7673 0.507938
lowerback -0.0266268 -2.65633 -2.71443
upperback 1.28807 -3.58586 4.04416
thorax 1.77099 -1.87023 5.64092
lowerneck -1.63678 -13.9957 -12.8075
upperneck -2.51587 -18.5129 12.1837
head 1.83314 -9.18621 4.87753
rclavicle 7.15625e-015 -9.54166e-015
rhumerus -38.1671 5.7794 -76.1573
rradius 39.5993
rwrist 2.48836
rhand -12.299 20.3648
rfingers 7.12502
rthumb 13.7689 -9.15956
lclavicle 7.15625e-015 -9.54166e-015
lhumerus -50.9941 -13.5114 91.1201
lradius 89.1786
lwrist 8.517
lhand -14.2875 50.7178
lfingers 7.12502
lthumb 11.8519 800.362
rfemur -7.39577 7.76876 19.1191
rtibia 27.1026
rfoot -28.1382 -23.8784
rtoes -7.85974
lfemur -205.078 185.631 -187.75
ltibia 26.8448
lfoot -14.8736 27.1523
ltoes -34.5782
1715
root 4.70701 15.5303 -9.27089 5.33413 -10.5777 0.404905
lowerback 0.253238 -2.63703 -3.14438
upperback 1.47762 -3.56037 3.84254
thorax 1.82045 -1.86659 5.68344
lowerneck -1.63822 -14.043 -12.7935
upperneck -2.48464 -18.5828 12.2971
head 1.86164 -9.2216 4.89937
rclavicle 3.97569e-016 4.77083e-015
rhumerus -38.618 4.72288 -76.7805
rradius 38.4033
rwrist 3.37809
rhand -12.0081 20.8254
rfingers 7.12502
rthumb 14.0491 -8.6798
lclavicle 3.97569e-016 4.77083e-015
lhumerus -50.2589 -14.1952 90.6973
lradius 88.368
lwrist 7.43952
lhand -14.1268 50.5661
lfingers 7.12502
lthumb 12.0069 800.202
rfemur -6.89472 7.4137 18.8781
rtibia 26.7905
rfoot -27.9392 -23.7564
rtoes -7.3264
lfemur -205.317 188.877 -187.249
ltibia 27.2259
lfoot -14.9451 29.9718
ltoes -36.7568
1716
root 4.79335 15.5329 -9.18104 5.25998 -10.5775 0.328788
lowerback 0.665366 -2.56425 -3.55576
upperback 1.60073 -3.46633 3.60405
thorax 1.71466 -1.82303 5.6865
lowerneck -1.65028 -14.0903 -12.8952
upperneck -2.17667 -18.668 12.3739
head 1.98235 -9.26168 4.91198
rclavicle 6.61953e-014 2.38542e-015
rhumerus -39.2474 3.9994 -77.5229
rradius 37.6456
rwrist 3.91508
rhand -10.6817 19.0343
rfingers 7.12502
rthumb 15.3271 -10.3777
lclavicle 6.61953e-014 2.38542e-015
lhumerus -49.5908 -14.8887 90.2646
lradius 87.6551
lwrist 6.12544
lhand -14.3922 50.1397
lfingers 7.12502
lthumb 11.7509 799.79
rfemur -6.50457 6.8717 18.4895
rtibia 26.6117
rfoot -27.5182 -23.2754
rtoes -8.21352
lfemur -205.318 187.944 -187.712
ltibia 27.502
lfoot -12.1391 29.0754
ltoes -36.6418
1717
root 4.88882 15.5333 -9.09254 5.3579 -10.7072 0.104516
lowerback 0.986531 -2.46986 -3.78472
upperback 1.67129 -3.34464 3.39422
thorax 1.59239 -1.76141 5.61272
lowerneck -1.63747 -14.1336 -13.035
upperneck -1.87899 -18.7514 12.505
head 2.1053 -9.30131 4.9471
rclavicle -2.22639e-014 -1.51076e-014
rhumerus -39.8751 3.75764 -78.441
rradius 37.1767
rwrist 3.95031
rhand -12.149 21.9115
rfingers 7.12502
rthumb 13.9134 -7.60303
lclavicle -2.22639e-014 -1.51076e-014
lhumerus -49.0063 -15.508 89.7977
lradius 87.2577
lwrist 4.96096
lhand -15.1558 50.0076
lfingers 7.12502
lthumb 11.0145 799.699
rfemur -6.48627 6.02912 18.1496
rtibia 26.732
rfoot -26.7671 -22.5508
rtoes -11.1113
lfemur -205.297 185.528 -188.263
ltibia 27.6855
lfoot -10.148 27.1155
ltoes -36.9167
1718
root 4.9922 15.5367 -9.00634 5.53838 -10.8862 -0.108116
lowerback 1.30569 -2.39002 -4.07786
upperback 1.66358 -3.24513 3.24358
thorax 1.40073 -1.70875 5.6383
lowerneck -1.48945 -14.1334 -13.1388
upperneck -1.73286 -18.7804 12.5818
head 2.14644 -9.31953 4.98432
rclavicle -5.89397e-014 3.4191e-014
rhumerus -40.4698 4.00725 -79.3793
rradius 36.9652
rwrist 3.46322
rhand -12.0711 21.9767
rfingers 7.12502
rthumb 13.9885 -7.53261
lclavicle -5.89397e-014 3.4191e-014
lhumerus -48.5412 -15.9218 89.3982
lradius 87.1768
lwrist 4.31069
lhand -15.8748 50.0576
lfingers 7.12502
lthumb 10.321 799.784
rfemur -6.71014 5.00023 17.7148
rtibia 27.0857
rfoot -25.8724 -21.6052
rtoes -13.6164
lfemur -205.344 183.716 -188.632
ltibia 27.8018
lfoot -8.69153 26.503
ltoes -36.9893
1719
root 5.10061 15.5389 -8.91709 5.66942 -11.1474 -0.32292
lowerback 1.62615 -2.31381 -4.4615
upperback 1.68937 -3.15525 3.16263
thorax 1.25337 -1.66457 5.7869
lowerneck -1.35432 -14.1074 -13.194
upperneck -1.64009 -18.767 12.5712
head 2.1549 -9.31715 4.99626
rclavicle -4.23411e-014 1.51076e-014
rhumerus -40.9423 4.61121 -80.2448
rradius 37.0857
rwrist 2.80043
rhand -11.646 22.0315
rfingers 7.12502
rthumb 14.3981 -7.44913
lclavicle -4.23411e-014 1.51076e-014
lhumerus -48.0034 -16.1349 89.0787
lradius 87.2526
lwrist 4.28707
lhand -16.1913 49.9467
lfingers 7.12502
lthumb 10.0156 799.688
rfemur -6.93397 4.02025 17.2153
rtibia 27.5514
rfoot -25.212 -20.3429
rtoes -14.6198
lfemur -205.312 182.266 -188.929
ltibia 27.9435
lfoot -7.67909 26.7288
ltoes -37.6568
1720
root 5.215 15.5441 -8.82186 5.74066 -11.5572 -0.581243
lowerback 1.89572 -2.20871 -4.80697
upperback 1.78013 -3.02758 3.09174
thorax 1.19416 -1.60499 5.92013
lowerneck -1.24067 -14.0512 -13.2434
upperneck -1.56172 -18.7118 12.6215
head 2.16335 -9.29335 5.02764
rclavicle 1.89839e-014 -1.27222e-014
rhumerus -41.3055 5.47112 -81.0987
rradius 37.4919
rwrist 2.29708
rhand -11.1946 22.3717
rfingers 7.12502
rthumb 14.833 -7.07738
lclavicle 1.89839e-014 -1.27222e-014
lhumerus -47.4432 -16.1552 88.7604
lradius 87.4376
lwrist 4.79122
lhand -16.1259 49.9252
lfingers 7.12502
lthumb 10.0787 799.664
rfemur -7.20658 3.11881 16.6858
rtibia 28.1809
rfoot -24.4106 -18.9605
rtoes -16.0313
lfemur -205.104 180.687 -189.28
ltibia 28.1285
lfoot -7.53751 26.7837
ltoes -37.7961
